<?xml version="1.0" encoding="UTF-8" ?>
<!DOCTYPE svg PUBLIC "-//W3C//DTD SVG 1.1//EN" "http://www.w3.org/Graphics/SVG/1.1/DTD/svg11.dtd">
<svg width="36px" height="35.875px" viewBox="0 0 36 35.875" version="1.1" xmlns="http://www.w3.org/2000/svg">
<g id="#253677ff">
<path fill="#253677" opacity="1.00" d=" M 7.79 0.00 L 22.36 0.00 C 24.73 0.42 27.37 0.96 28.94 2.95 C 30.40 4.63 30.38 6.94 30.45 9.03 C 29.69 12.28 28.52 15.77 25.64 17.76 C 21.94 20.47 17.13 20.09 12.79 20.06 C 11.64 23.98 11.21 28.05 10.62 32.07 C 7.97 32.08 5.33 31.99 2.69 31.90 C 4.28 21.25 5.81 10.58 7.79 0.00 Z" />
</g>
<g id="#139bd7ff">
<path fill="#139bd7" opacity="1.00" d=" M 30.45 9.03 C 34.77 12.34 33.46 18.82 30.50 22.58 C 27.85 25.90 23.33 25.82 19.51 26.32 C 19.05 29.57 18.59 32.83 17.72 36.00 L 10.18 36.00 C 10.32 34.69 10.47 33.38 10.62 32.07 C 11.21 28.05 11.64 23.98 12.79 20.06 C 17.13 20.09 21.94 20.47 25.64 17.76 C 28.52 15.77 29.69 12.28 30.45 9.03 Z" />
</g>
</svg>
